  0
SECTION
  2
HEADER
  9
$ACADVER
  1
AC1009
  9
$EXTMAX
 10
179.976577758789
 20
145.2119140625
 30
0.0
  9
$EXTMIN
 10
-154.982421875
 20
-13.0
 30
0.0
  9
$INSUNITS
 70
     4
  9
$LUNITS
 70
     2
  9
$LUPREC
 70
     4
  9
$MEASUREMENT
 70
     1
  0
ENDSEC
  0
SECTION
  2
TABLES
  0
TABLE
  2
LAYER
 70
     1
  0
LAYER
  2
0
 70
     0
 62
     7
  6
Continuous
  0
LAYER
  2
Platform
 70
     0
 62
    70
  6
Continuous
  0
LAYER
  2
Befestigung
 70
     0
 62
    70
  6
Continuous
  0
LAYER
  2
PCB_Holder
 70
     0
 62
    70
  6
Continuous
  0
LAYER
  2
Trays
 70
     0
 62
    70
  6
Continuous
  0
LAYER
  2
Fadenkreuz
 70
     0
 62
    70
  6
Continuous
  0
LAYER
  2
Descriptions
 70
     0
 62
     7
  6
Continuous
  0
LAYER
  2
calibrateBlock
 70
     0
 62
     2
  6
Continuous
  0
ENDTAB
  0
TABLE
  2
APPID
 70
     1
  0
APPID
  2
ACAD
 70
     0
  0
ENDTAB
  0
ENDSEC
  0
SECTION
  2
ENTITIES
  0
POLYLINE
  8
Platform
 66
     1
 10
0.0
 20
0.0
 30
0.0
 70
     1
  0
VERTEX
  8
Platform
 10
-124.0
 20
-10.0
 42
0.0
  0
VERTEX
  8
Platform
 10
136.00000079
 20
-10.0
 42
0.0
  0
VERTEX
  8
Platform
 10
136.00000079
 20
120.0
 42
0.0
  0
VERTEX
  8
Platform
 10
-124.0
 20
120.0
 42
0.0
  0
SEQEND
  0
CIRCLE
  8
Befestigung
 10
-116.0
 20
114.0
 30
0.0
 40
1.61
  0
CIRCLE
  8
Befestigung
 10
-116.0
 20
-4.0
 30
0.0
 40
1.61
  0
CIRCLE
  8
Befestigung
 10
128.0
 20
114.0
 30
0.0
 40
1.61
  0
CIRCLE
  8
Befestigung
 10
128.0
 20
-4.0
 30
0.0
 40
1.61
  0
CIRCLE
  8
PCB_Holder
 10
59.0
 20
83.5
 30
0.0
 40
2.5
  0
CIRCLE
  8
PCB_Holder
 10
-2.5
 20
40.0
 30
0.0
 40
2.5
  0
CIRCLE
  8
PCB_Holder
 10
123.5
 20
40.0
 30
0.0
 40
2.5
  0
CIRCLE
  8
PCB_Holder
 10
59.0
 20
-2.5
 30
0.0
 40
2.5
  0
POLYLINE
  8
PCB_Holder
 66
     1
 10
0.0
 20
0.0
 30
0.0
 70
     1
  0
VERTEX
  8
PCB_Holder
 10
0.0
 20
0.0
 42
0.0
  0
VERTEX
  8
PCB_Holder
 10
121.0
 20
0.0
 42
0.0
  0
VERTEX
  8
PCB_Holder
 10
121.0
 20
81.0
 42
0.0
  0
VERTEX
  8
PCB_Holder
 10
0.0
 20
81.0
 42
0.0
  0
SEQEND
  0
POLYLINE
  8
PCB_Holder
 66
     1
 10
0.0
 20
0.0
 30
0.0
 70
     1
  0
VERTEX
  8
PCB_Holder
 10
-3.0
 20
-3.0
 42
0.0
  0
VERTEX
  8
PCB_Holder
 10
3.0
 20
-3.0
 42
0.0
  0
VERTEX
  8
PCB_Holder
 10
3.0
 20
3.0
 42
0.0
  0
VERTEX
  8
PCB_Holder
 10
-3.0
 20
3.0
 42
0.0
  0
SEQEND
  0
POLYLINE
  8
PCB_Holder
 66
     1
 10
0.0
 20
0.0
 30
0.0
 70
     1
  0
VERTEX
  8
PCB_Holder
 10
123.0
 20
38.0
 42
0.0
  0
VERTEX
  8
PCB_Holder
 10
136.0
 20
38.0
 42
0.0
  0
VERTEX
  8
PCB_Holder
 10
136.0
 20
42.0
 42
0.0
  0
VERTEX
  8
PCB_Holder
 10
123.0
 20
42.0
 42
0.0
  0
SEQEND
  0
CIRCLE
  8
PCB_Holder
 10
-2.5
 20
5.5
 30
0.0
 40
2.5
  0
CIRCLE
  8
PCB_Holder
 10
5.5
 20
-2.5
 30
0.0
 40
2.5
  0
POLYLINE
  8
Trays
 66
     1
 10
0.0
 20
0.0
 30
0.0
 70
     1
  0
VERTEX
  8
Trays
 10
-106.0
 20
-13.0
 42
0.0
  0
VERTEX
  8
Trays
 10
-97.9
 20
-13.0
 42
0.0
  0
VERTEX
  8
Trays
 10
-97.9
 20
123.0
 42
0.0
  0
VERTEX
  8
Trays
 10
-106.0
 20
123.0
 42
0.0
  0
SEQEND
  0
POLYLINE
  8
Trays
 66
     1
 10
0.0
 20
0.0
 30
0.0
 70
     1
  0
VERTEX
  8
Trays
 10
-96.0
 20
-13.0
 42
0.0
  0
VERTEX
  8
Trays
 10
-87.9
 20
-13.0
 42
0.0
  0
VERTEX
  8
Trays
 10
-87.9
 20
123.0
 42
0.0
  0
VERTEX
  8
Trays
 10
-96.0
 20
123.0
 42
0.0
  0
SEQEND
  0
POLYLINE
  8
Trays
 66
     1
 10
0.0
 20
0.0
 30
0.0
 70
     1
  0
VERTEX
  8
Trays
 10
-86.0
 20
-13.0
 42
0.0
  0
VERTEX
  8
Trays
 10
-77.9
 20
-13.0
 42
0.0
  0
VERTEX
  8
Trays
 10
-77.9
 20
123.0
 42
0.0
  0
VERTEX
  8
Trays
 10
-86.0
 20
123.0
 42
0.0
  0
SEQEND
  0
POLYLINE
  8
Trays
 66
     1
 10
0.0
 20
0.0
 30
0.0
 70
     1
  0
VERTEX
  8
Trays
 10
-76.0
 20
-13.0
 42
0.0
  0
VERTEX
  8
Trays
 10
-67.9
 20
-13.0
 42
0.0
  0
VERTEX
  8
Trays
 10
-67.9
 20
123.0
 42
0.0
  0
VERTEX
  8
Trays
 10
-76.0
 20
123.0
 42
0.0
  0
SEQEND
  0
POLYLINE
  8
Trays
 66
     1
 10
0.0
 20
0.0
 30
0.0
 70
     1
  0
VERTEX
  8
Trays
 10
-66.0
 20
-13.0
 42
0.0
  0
VERTEX
  8
Trays
 10
-57.9
 20
-13.0
 42
0.0
  0
VERTEX
  8
Trays
 10
-57.9
 20
123.0
 42
0.0
  0
VERTEX
  8
Trays
 10
-66.0
 20
123.0
 42
0.0
  0
SEQEND
  0
POLYLINE
  8
Trays
 66
     1
 10
0.0
 20
0.0
 30
0.0
 70
     1
  0
VERTEX
  8
Trays
 10
-56.0
 20
-13.0
 42
0.0
  0
VERTEX
  8
Trays
 10
-47.9
 20
-13.0
 42
0.0
  0
VERTEX
  8
Trays
 10
-47.9
 20
123.0
 42
0.0
  0
VERTEX
  8
Trays
 10
-56.0
 20
123.0
 42
0.0
  0
SEQEND
  0
POLYLINE
  8
Trays
 66
     1
 10
0.0
 20
0.0
 30
0.0
 70
     1
  0
VERTEX
  8
Trays
 10
-46.0
 20
-13.0
 42
0.0
  0
VERTEX
  8
Trays
 10
-37.9
 20
-13.0
 42
0.0
  0
VERTEX
  8
Trays
 10
-37.9
 20
123.0
 42
0.0
  0
VERTEX
  8
Trays
 10
-46.0
 20
123.0
 42
0.0
  0
SEQEND
  0
POLYLINE
  8
Trays
 66
     1
 10
0.0
 20
0.0
 30
0.0
 70
     1
  0
VERTEX
  8
Trays
 10
-23.0
 20
21.0
 42
0.0
  0
VERTEX
  8
Trays
 10
-8.0
 20
21.0
 42
0.0
  0
VERTEX
  8
Trays
 10
-8.0
 20
36.0
 42
0.0
  0
VERTEX
  8
Trays
 10
-23.0
 20
36.0
 42
0.0
  0
SEQEND
  0
CIRCLE
  8
Trays
 10
-17.0
 20
44.0
 30
0.0
 40
6.05
  0
CIRCLE
  8
Trays
 10
-115.0
 20
44.0
 30
0.0
 40
6.05
  0
POLYLINE
  8
Trays
 66
     1
 10
0.0
 20
0.0
 30
0.0
 70
     1
  0
VERTEX
  8
Trays
 10
-23.0
 20
71.0
 42
0.0
  0
VERTEX
  8
Trays
 10
-8.0
 20
71.0
 42
0.0
  0
VERTEX
  8
Trays
 10
-8.0
 20
86.0
 42
0.0
  0
VERTEX
  8
Trays
 10
-23.0
 20
86.0
 42
0.0
  0
SEQEND
  0
POLYLINE
  8
Trays
 66
     1
 10
0.0
 20
0.0
 30
0.0
 70
     1
  0
VERTEX
  8
Trays
 10
-23.0
 20
52.0
 42
0.0
  0
VERTEX
  8
Trays
 10
-8.0
 20
52.0
 42
0.0
  0
VERTEX
  8
Trays
 10
-8.0
 20
67.0
 42
0.0
  0
VERTEX
  8
Trays
 10
-23.0
 20
67.0
 42
0.0
  0
SEQEND
  0
POLYLINE
  8
Trays
 66
     1
 10
0.0
 20
0.0
 30
0.0
 70
     1
  0
VERTEX
  8
Trays
 10
-23.0
 20
110.0
 42
0.0
  0
VERTEX
  8
Trays
 10
-8.0
 20
110.0
 42
0.0
  0
VERTEX
  8
Trays
 10
-8.0
 20
123.0
 42
0.0
  0
VERTEX
  8
Trays
 10
-23.0
 20
123.0
 42
0.0
  0
SEQEND
  0
POLYLINE
  8
Trays
 66
     1
 10
0.0
 20
0.0
 30
0.0
 70
     1
  0
VERTEX
  8
Trays
 10
-4.0
 20
89.0
 42
0.0
  0
VERTEX
  8
Trays
 10
11.0
 20
89.0
 42
0.0
  0
VERTEX
  8
Trays
 10
11.0
 20
104.0
 42
0.0
  0
VERTEX
  8
Trays
 10
-4.0
 20
104.0
 42
0.0
  0
SEQEND
  0
POLYLINE
  8
Trays
 66
     1
 10
0.0
 20
0.0
 30
0.0
 70
     1
  0
VERTEX
  8
Trays
 10
15.0
 20
89.0
 42
0.0
  0
VERTEX
  8
Trays
 10
30.0
 20
89.0
 42
0.0
  0
VERTEX
  8
Trays
 10
30.0
 20
104.0
 42
0.0
  0
VERTEX
  8
Trays
 10
15.0
 20
104.0
 42
0.0
  0
SEQEND
  0
POLYLINE
  8
Trays
 66
     1
 10
0.0
 20
0.0
 30
0.0
 70
     1
  0
VERTEX
  8
Trays
 10
34.0
 20
89.0
 42
0.0
  0
VERTEX
  8
Trays
 10
49.0
 20
89.0
 42
0.0
  0
VERTEX
  8
Trays
 10
49.0
 20
104.0
 42
0.0
  0
VERTEX
  8
Trays
 10
34.0
 20
104.0
 42
0.0
  0
SEQEND
  0
POLYLINE
  8
Trays
 66
     1
 10
0.0
 20
0.0
 30
0.0
 70
     1
  0
VERTEX
  8
Trays
 10
53.0
 20
89.0
 42
0.0
  0
VERTEX
  8
Trays
 10
68.0
 20
89.0
 42
0.0
  0
VERTEX
  8
Trays
 10
68.0
 20
104.0
 42
0.0
  0
VERTEX
  8
Trays
 10
53.0
 20
104.0
 42
0.0
  0
SEQEND
  0
POLYLINE
  8
Trays
 66
     1
 10
0.0
 20
0.0
 30
0.0
 70
     1
  0
VERTEX
  8
Trays
 10
72.0
 20
89.0
 42
0.0
  0
VERTEX
  8
Trays
 10
87.0
 20
89.0
 42
0.0
  0
VERTEX
  8
Trays
 10
87.0
 20
104.0
 42
0.0
  0
VERTEX
  8
Trays
 10
72.0
 20
104.0
 42
0.0
  0
SEQEND
  0
POLYLINE
  8
Trays
 66
     1
 10
0.0
 20
0.0
 30
0.0
 70
     1
  0
VERTEX
  8
Trays
 10
91.0
 20
89.0
 42
0.0
  0
VERTEX
  8
Trays
 10
106.0
 20
89.0
 42
0.0
  0
VERTEX
  8
Trays
 10
106.0
 20
104.0
 42
0.0
  0
VERTEX
  8
Trays
 10
91.0
 20
104.0
 42
0.0
  0
SEQEND
  0
POLYLINE
  8
Trays
 66
     1
 10
0.0
 20
0.0
 30
0.0
 70
     1
  0
VERTEX
  8
Trays
 10
110.0
 20
89.0
 42
0.0
  0
VERTEX
  8
Trays
 10
125.0
 20
89.0
 42
0.0
  0
VERTEX
  8
Trays
 10
125.0
 20
104.0
 42
0.0
  0
VERTEX
  8
Trays
 10
110.0
 20
104.0
 42
0.0
  0
SEQEND
  0
POLYLINE
  8
Trays
 66
     1
 10
0.0
 20
0.0
 30
0.0
 70
     1
  0
VERTEX
  8
Trays
 10
-4.0
 20
110.0
 42
0.0
  0
VERTEX
  8
Trays
 10
11.0
 20
110.0
 42
0.0
  0
VERTEX
  8
Trays
 10
11.0
 20
123.0
 42
0.0
  0
VERTEX
  8
Trays
 10
-4.0
 20
123.0
 42
0.0
  0
SEQEND
  0
CIRCLE
  8
Trays
 10
-115.0
 20
99.0
 30
0.0
 40
6.05
  0
CIRCLE
  8
Trays
 10
-17.0
 20
99.0
 30
0.0
 40
6.05
  0
POLYLINE
  8
Trays
 66
     1
 10
0.0
 20
0.0
 30
0.0
 70
     1
  0
VERTEX
  8
Trays
 10
-6.5212473457147
 20
107.481636654748
 42
0.0
  0
VERTEX
  8
Trays
 10
-2.5212473457147
 20
107.481636654748
 42
0.0
  0
VERTEX
  8
Trays
 10
-2.5212473457147
 20
111.481636654748
 42
0.0
  0
VERTEX
  8
Trays
 10
-6.5212473457147
 20
111.481636654748
 42
0.0
  0
SEQEND
  0
POLYLINE
  8
Trays
 66
     1
 10
0.0
 20
0.0
 30
0.0
 70
     1
  0
VERTEX
  8
Trays
 10
-6.5212473457147
 20
86.4816366547484
 42
0.0
  0
VERTEX
  8
Trays
 10
-2.5212473457147
 20
86.4816366547484
 42
0.0
  0
VERTEX
  8
Trays
 10
-2.5212473457147
 20
90.4816366547484
 42
0.0
  0
VERTEX
  8
Trays
 10
-6.5212473457147
 20
90.4816366547484
 42
0.0
  0
SEQEND
  0
POLYLINE
  8
Trays
 66
     1
 10
0.0
 20
0.0
 30
0.0
 70
     1
  0
VERTEX
  8
Trays
 10
-25.5212473457147
 20
68.4816366547484
 42
0.0
  0
VERTEX
  8
Trays
 10
-21.5212473457147
 20
68.4816366547484
 42
0.0
  0
VERTEX
  8
Trays
 10
-21.5212473457147
 20
72.4816366547484
 42
0.0
  0
VERTEX
  8
Trays
 10
-25.5212473457147
 20
72.4816366547484
 42
0.0
  0
SEQEND
  0
POLYLINE
  8
Trays
 66
     1
 10
0.0
 20
0.0
 30
0.0
 70
     1
  0
VERTEX
  8
Trays
 10
-25.5212473457147
 20
49.4816366547484
 42
0.0
  0
VERTEX
  8
Trays
 10
-21.5212473457147
 20
49.4816366547484
 42
0.0
  0
VERTEX
  8
Trays
 10
-21.5212473457147
 20
53.4816366547484
 42
0.0
  0
VERTEX
  8
Trays
 10
-25.5212473457147
 20
53.4816366547484
 42
0.0
  0
SEQEND
  0
POLYLINE
  8
Trays
 66
     1
 10
0.0
 20
0.0
 30
0.0
 70
     1
  0
VERTEX
  8
Trays
 10
-25.5212473457147
 20
18.4816366547484
 42
0.0
  0
VERTEX
  8
Trays
 10
-21.5212473457147
 20
18.4816366547484
 42
0.0
  0
VERTEX
  8
Trays
 10
-21.5212473457147
 20
22.4816366547484
 42
0.0
  0
VERTEX
  8
Trays
 10
-25.5212473457147
 20
22.4816366547484
 42
0.0
  0
SEQEND
  0
POLYLINE
  8
Trays
 66
     1
 10
0.0
 20
0.0
 30
0.0
 70
     1
  0
VERTEX
  8
Trays
 10
12.4787526542853
 20
86.4816366547484
 42
0.0
  0
VERTEX
  8
Trays
 10
16.4787526542853
 20
86.4816366547484
 42
0.0
  0
VERTEX
  8
Trays
 10
16.4787526542853
 20
90.4816366547484
 42
0.0
  0
VERTEX
  8
Trays
 10
12.4787526542853
 20
90.4816366547484
 42
0.0
  0
SEQEND
  0
POLYLINE
  8
Trays
 66
     1
 10
0.0
 20
0.0
 30
0.0
 70
     1
  0
VERTEX
  8
Trays
 10
31.4787526542853
 20
86.4816366547484
 42
0.0
  0
VERTEX
  8
Trays
 10
35.4787526542853
 20
86.4816366547484
 42
0.0
  0
VERTEX
  8
Trays
 10
35.4787526542853
 20
90.4816366547484
 42
0.0
  0
VERTEX
  8
Trays
 10
31.4787526542853
 20
90.4816366547484
 42
0.0
  0
SEQEND
  0
POLYLINE
  8
Trays
 66
     1
 10
0.0
 20
0.0
 30
0.0
 70
     1
  0
VERTEX
  8
Trays
 10
50.4787526542853
 20
86.4816366547484
 42
0.0
  0
VERTEX
  8
Trays
 10
54.4787526542853
 20
86.4816366547484
 42
0.0
  0
VERTEX
  8
Trays
 10
54.4787526542853
 20
90.4816366547484
 42
0.0
  0
VERTEX
  8
Trays
 10
50.4787526542853
 20
90.4816366547484
 42
0.0
  0
SEQEND
  0
POLYLINE
  8
Trays
 66
     1
 10
0.0
 20
0.0
 30
0.0
 70
     1
  0
VERTEX
  8
Trays
 10
69.4787526542853
 20
86.4816366547484
 42
0.0
  0
VERTEX
  8
Trays
 10
73.4787526542853
 20
86.4816366547484
 42
0.0
  0
VERTEX
  8
Trays
 10
73.4787526542853
 20
90.4816366547484
 42
0.0
  0
VERTEX
  8
Trays
 10
69.4787526542853
 20
90.4816366547484
 42
0.0
  0
SEQEND
  0
POLYLINE
  8
Trays
 66
     1
 10
0.0
 20
0.0
 30
0.0
 70
     1
  0
VERTEX
  8
Trays
 10
88.4787526542853
 20
86.4816366547484
 42
0.0
  0
VERTEX
  8
Trays
 10
92.4787526542853
 20
86.4816366547484
 42
0.0
  0
VERTEX
  8
Trays
 10
92.4787526542853
 20
90.4816366547484
 42
0.0
  0
VERTEX
  8
Trays
 10
88.4787526542853
 20
90.4816366547484
 42
0.0
  0
SEQEND
  0
POLYLINE
  8
Trays
 66
     1
 10
0.0
 20
0.0
 30
0.0
 70
     1
  0
VERTEX
  8
Trays
 10
107.478752654285
 20
86.4816366547484
 42
0.0
  0
VERTEX
  8
Trays
 10
111.478752654285
 20
86.4816366547484
 42
0.0
  0
VERTEX
  8
Trays
 10
111.478752654285
 20
90.4816366547484
 42
0.0
  0
VERTEX
  8
Trays
 10
107.478752654285
 20
90.4816366547484
 42
0.0
  0
SEQEND
  0
POLYLINE
  8
Trays
 66
     1
 10
0.0
 20
0.0
 30
0.0
 70
     1
  0
VERTEX
  8
Trays
 10
-25.5212473457147
 20
107.481636654748
 42
0.0
  0
VERTEX
  8
Trays
 10
-21.5212473457147
 20
107.481636654748
 42
0.0
  0
VERTEX
  8
Trays
 10
-21.5212473457147
 20
111.481636654748
 42
0.0
  0
VERTEX
  8
Trays
 10
-25.5212473457147
 20
111.481636654748
 42
0.0
  0
SEQEND
  0
POLYLINE
  8
Trays
 66
     1
 10
0.0
 20
0.0
 30
0.0
 70
     1
  0
VERTEX
  8
Trays
 10
-36.0
 20
-13.0
 42
0.0
  0
VERTEX
  8
Trays
 10
-27.9
 20
-13.0
 42
0.0
  0
VERTEX
  8
Trays
 10
-27.9
 20
123.0
 42
0.0
  0
VERTEX
  8
Trays
 10
-36.0
 20
123.0
 42
0.0
  0
SEQEND
  0
CIRCLE
  8
Fadenkreuz
 10
-115.0
 20
20.0
 30
0.0
 40
0.5
  0
CIRCLE
  8
Fadenkreuz
 10
-115.0
 20
20.0
 30
0.0
 40
1.0
  0
CIRCLE
  8
Fadenkreuz
 10
-115.0
 20
20.0
 30
0.0
 40
2.5
  0
POLYLINE
  8
Fadenkreuz
 66
     1
 10
0.0
 20
0.0
 30
0.0
 70
     0
  0
VERTEX
  8
Fadenkreuz
 10
-115.0
 20
23.0
 42
0.0
  0
VERTEX
  8
Fadenkreuz
 10
-115.0
 20
17.0
 42
0.0
  0
VERTEX
  8
Fadenkreuz
 10
-115.0
 20
17.0
 42
0.0
  0
VERTEX
  8
Fadenkreuz
 10
-115.0
 20
17.0
 42
0.0
  0
SEQEND
  0
POLYLINE
  8
Fadenkreuz
 66
     1
 10
0.0
 20
0.0
 30
0.0
 70
     0
  0
VERTEX
  8
Fadenkreuz
 10
-118.0
 20
20.0
 42
0.0
  0
VERTEX
  8
Fadenkreuz
 10
-112.0
 20
20.0
 42
0.0
  0
SEQEND
  0
CIRCLE
  8
Fadenkreuz
 10
130.0
 20
20.0
 30
0.0
 40
0.5
  0
CIRCLE
  8
Fadenkreuz
 10
130.0
 20
20.0
 30
0.0
 40
1.0
  0
CIRCLE
  8
Fadenkreuz
 10
130.0
 20
20.0
 30
0.0
 40
2.5
  0
POLYLINE
  8
Fadenkreuz
 66
     1
 10
0.0
 20
0.0
 30
0.0
 70
     0
  0
VERTEX
  8
Fadenkreuz
 10
130.0
 20
23.0
 42
0.0
  0
VERTEX
  8
Fadenkreuz
 10
130.0
 20
17.0
 42
0.0
  0
VERTEX
  8
Fadenkreuz
 10
130.0
 20
17.0
 42
0.0
  0
VERTEX
  8
Fadenkreuz
 10
130.0
 20
17.0
 42
0.0
  0
SEQEND
  0
POLYLINE
  8
Fadenkreuz
 66
     1
 10
0.0
 20
0.0
 30
0.0
 70
     0
  0
VERTEX
  8
Fadenkreuz
 10
127.0
 20
20.0
 42
0.0
  0
VERTEX
  8
Fadenkreuz
 10
133.0
 20
20.0
 42
0.0
  0
SEQEND
  0
CIRCLE
  8
Fadenkreuz
 10
50.0
 20
115.0
 30
0.0
 40
0.5
  0
CIRCLE
  8
Fadenkreuz
 10
50.0
 20
115.0
 30
0.0
 40
1.0
  0
CIRCLE
  8
Fadenkreuz
 10
50.0
 20
115.0
 30
0.0
 40
2.5
  0
POLYLINE
  8
Fadenkreuz
 66
     1
 10
0.0
 20
0.0
 30
0.0
 70
     0
  0
VERTEX
  8
Fadenkreuz
 10
50.0
 20
118.0
 42
0.0
  0
VERTEX
  8
Fadenkreuz
 10
50.0
 20
112.0
 42
0.0
  0
VERTEX
  8
Fadenkreuz
 10
50.0
 20
112.0
 42
0.0
  0
VERTEX
  8
Fadenkreuz
 10
50.0
 20
112.0
 42
0.0
  0
SEQEND
  0
POLYLINE
  8
Fadenkreuz
 66
     1
 10
0.0
 20
0.0
 30
0.0
 70
     0
  0
VERTEX
  8
Fadenkreuz
 10
47.0
 20
115.0
 42
0.0
  0
VERTEX
  8
Fadenkreuz
 10
53.0
 20
115.0
 42
0.0
  0
SEQEND
  0
CIRCLE
  8
Fadenkreuz
 10
-115.0
 20
20.0
 30
0.0
 40
5.8309518948453
  0
CIRCLE
  8
Fadenkreuz
 10
50.0
 20
115.0
 30
0.0
 40
5.8309518948453
  0
CIRCLE
  8
Fadenkreuz
 10
130.0
 20
20.0
 30
0.0
 40
5.8309518948453
  0
POLYLINE
  8
Descriptions
 66
     1
 10
0.0
 20
0.0
 30
0.0
 70
     0
  0
VERTEX
  8
Descriptions
 10
50.0
 20
115.0
 42
0.0
  0
VERTEX
  8
Descriptions
 10
61.0
 20
132.0
 42
0.0
  0
SEQEND
  0
TEXT
  8
Descriptions
 10
62.0
 20
134.0
 30
0.0
 40
6.0
  1
X: +50.00
Y: +115.00
 72
     0
 73
     1
  0
POLYLINE
  8
Descriptions
 66
     1
 10
0.0
 20
0.0
 30
0.0
 70
     0
  0
VERTEX
  8
Descriptions
 10
130.0
 20
20.0
 42
0.0
  0
VERTEX
  8
Descriptions
 10
149.0
 20
34.0
 42
0.0
  0
SEQEND
  0
TEXT
  8
Descriptions
 10
151.0
 20
34.0
 30
0.0
 40
6.0
  1
X: +130.00
Y: +20.00
 72
     0
 73
     1
  0
POLYLINE
  8
Descriptions
 66
     1
 10
0.0
 20
0.0
 30
0.0
 70
     0
  0
VERTEX
  8
Descriptions
 10
-115.0
 20
20.0
 42
0.0
  0
VERTEX
  8
Descriptions
 10
-153.0
 20
43.0
 42
0.0
  0
SEQEND
  0
TEXT
  8
Descriptions
 10
-155.0
 20
44.0
 30
0.0
 40
6.0
  1
X: -115.00
Y: +20.00
 72
     0
 73
     1
  0
POLYLINE
  8
Descriptions
 66
     1
 10
0.0
 20
0.0
 30
0.0
 70
     0
  0
VERTEX
  8
Descriptions
 10
-110.0
 20
90.0
 42
0.0
  0
VERTEX
  8
Descriptions
 10
-141.0
 20
126.0
 42
0.0
  0
SEQEND
  0
TEXT
  8
Descriptions
 10
-142.0
 20
112.0
 30
0.0
 40
6.0
  1
Tape Zero:
+ 90.00


 72
     0
 73
     1
  0
POLYLINE
  8
calibrateBlock
 66
     1
 10
0.0
 20
0.0
 30
0.0
 70
     1
  0
VERTEX
  8
calibrateBlock
 10
-23.0
 20
-6.0
 42
0.0
  0
VERTEX
  8
calibrateBlock
 10
-7.99
 20
-6.0
 42
0.0
  0
VERTEX
  8
calibrateBlock
 10
-7.99
 20
9.01
 42
0.0
  0
VERTEX
  8
calibrateBlock
 10
-23.0
 20
9.01
 42
0.0
  0
SEQEND
  0
POLYLINE
  8
calibrateBlock
 66
     1
 10
0.0
 20
0.0
 30
0.0
 70
     1
  0
VERTEX
  8
calibrateBlock
 10
-24.0
 20
6.0
 42
0.0
  0
VERTEX
  8
calibrateBlock
 10
-20.0
 20
6.0
 42
0.0
  0
VERTEX
  8
calibrateBlock
 10
-20.0
 20
10.0
 42
0.0
  0
VERTEX
  8
calibrateBlock
 10
-24.0
 20
10.0
 42
0.0
  0
SEQEND
  0
POLYLINE
  8
calibrateBlock
 66
     1
 10
0.0
 20
0.0
 30
0.0
 70
     1
  0
VERTEX
  8
calibrateBlock
 10
-11.0
 20
6.0
 42
0.0
  0
VERTEX
  8
calibrateBlock
 10
-7.0
 20
6.0
 42
0.0
  0
VERTEX
  8
calibrateBlock
 10
-7.0
 20
10.0
 42
0.0
  0
VERTEX
  8
calibrateBlock
 10
-11.0
 20
10.0
 42
0.0
  0
SEQEND
  0
POLYLINE
  8
calibrateBlock
 66
     1
 10
0.0
 20
0.0
 30
0.0
 70
     1
  0
VERTEX
  8
calibrateBlock
 10
-11.0
 20
-7.0
 42
0.0
  0
VERTEX
  8
calibrateBlock
 10
-7.0
 20
-7.0
 42
0.0
  0
VERTEX
  8
calibrateBlock
 10
-7.0
 20
-3.0
 42
0.0
  0
VERTEX
  8
calibrateBlock
 10
-11.0
 20
-3.0
 42
0.0
  0
SEQEND
  0
POLYLINE
  8
calibrateBlock
 66
     1
 10
0.0
 20
0.0
 30
0.0
 70
     1
  0
VERTEX
  8
calibrateBlock
 10
-24.0
 20
-7.0
 42
0.0
  0
VERTEX
  8
calibrateBlock
 10
-20.0
 20
-7.0
 42
0.0
  0
VERTEX
  8
calibrateBlock
 10
-20.0
 20
-3.0
 42
0.0
  0
VERTEX
  8
calibrateBlock
 10
-24.0
 20
-3.0
 42
0.0
  0
SEQEND
  0
POLYLINE
  8
calibrateBlock
 66
     1
 10
0.0
 20
0.0
 30
0.0
 70
     1
  0
VERTEX
  8
calibrateBlock
 10
-17.5
 20
-13.0
 42
0.0
  0
VERTEX
  8
calibrateBlock
 10
-13.5
 20
-13.0
 42
0.0
  0
VERTEX
  8
calibrateBlock
 10
-13.5
 20
-4.0
 42
0.0
  0
VERTEX
  8
calibrateBlock
 10
-17.5
 20
-4.0
 42
0.0
  0
SEQEND
  0
POLYLINE
  8
calibrateBlock
 66
     1
 10
0.0
 20
0.0
 30
0.0
 70
     1
  0
VERTEX
  8
calibrateBlock
 10
4.0
 20
6.0
 42
0.0
  0
VERTEX
  8
calibrateBlock
 10
4.0
 20
6.0
 42
0.0
  0
VERTEX
  8
calibrateBlock
 10
4.0
 20
6.0
 42
0.0
  0
VERTEX
  8
calibrateBlock
 10
4.0
 20
6.0
 42
0.0
  0
SEQEND
  0
POLYLINE
  8
calibrateBlock
 66
     1
 10
0.0
 20
0.0
 30
0.0
 70
     0
  0
VERTEX
  8
calibrateBlock
 10
-110.0
 20
90.0
 42
0.0
  0
VERTEX
  8
calibrateBlock
 10
-27.0
 20
90.0
 42
0.0
  0
SEQEND
  0
ENDSEC
  0
EOF
